<svg id="Capa_1" enable-background="new 0 0 512 512" height="512" viewBox="0 0 512 512" width="512" xmlns="http://www.w3.org/2000/svg"><g><path d="m452 0h-392c-33.084 0-60 26.916-60 60v392c0 33.084 26.916 60 60 60h392c33.084 0 60-26.916 60-60v-392c0-33.084-26.916-60-60-60zm20 60v96h-116v-116h96c11.028 0 20 8.972 20 20zm-276 256v-120h120v120zm120 40v116h-120v-116zm-160-40h-116v-120h116zm40-160v-116h120v116zm160 40h116v120h-116zm-296-156h96v116h-116v-96c0-11.028 8.972-20 20-20zm-20 412v-96h116v116h-96c-11.028 0-20-8.972-20-20zm412 20h-96v-116h116v96c0 11.028-8.972 20-20 20z"/></g></svg>